<?xml version="1.0" standalone="no"?>
<!DOCTYPE svg PUBLIC "-//W3C//DTD SVG 20010904//EN"
 "http://www.w3.org/TR/2001/REC-SVG-20010904/DTD/svg10.dtd">
<svg version="1.0" xmlns="http://www.w3.org/2000/svg"
 width="852.000000pt" height="852.000000pt" viewBox="0 0 852.000000 852.000000"
 preserveAspectRatio="xMidYMid meet">
<metadata>
Created by potrace 1.14, written by Peter Selinger 2001-2017
</metadata>
<g transform="translate(0.000000,852.000000) scale(0.100000,-0.100000)"
fill="#000000" stroke="none">
<path d="M360 8163 c-29 -11 -50 -36 -55 -67 -5 -23 6 -64 40 -156 26 -69 60
-165 76 -215 17 -49 33 -97 36 -105 4 -8 7 -17 8 -20 1 -3 15 -50 33 -105 28
-90 88 -294 98 -334 2 -9 26 -104 53 -211 27 -107 52 -211 55 -231 3 -19 14
-73 25 -120 10 -46 22 -100 25 -119 3 -19 8 -46 11 -60 7 -33 23 -127 29 -165
3 -16 12 -70 20 -120 24 -143 26 -158 61 -445 3 -19 7 -60 10 -90 3 -30 7 -75
10 -100 4 -41 10 -109 20 -245 27 -352 27 -1047 0 -1370 -7 -88 -16 -189 -19
-220 -2 -16 -6 -65 -10 -107 -4 -42 -8 -85 -10 -95 -2 -10 -7 -45 -10 -78 -4
-33 -9 -71 -11 -85 -2 -14 -6 -47 -10 -75 -8 -64 -21 -148 -51 -315 -13 -74
-26 -148 -29 -165 -11 -67 -16 -91 -21 -107 -3 -9 -7 -27 -9 -39 -29 -152
-112 -495 -155 -639 -167 -570 -299 -934 -511 -1410 -38 -86 -69 -161 -69
-167 0 -19 35 -41 58 -37 59 10 543 369 832 617 306 263 699 652 961 951 19
22 43 49 54 62 11 12 29 33 39 46 10 13 42 50 71 83 135 156 452 565 576 744
24 35 69 100 101 145 129 186 363 556 470 744 210 369 428 811 552 1122 26 63
51 124 56 135 40 88 220 627 220 660 0 6 -21 21 -47 34 -150 71 -742 399 -881
487 -29 19 -54 34 -57 34 -6 0 -273 169 -485 306 -387 251 -815 564 -1190 869
-229 186 -564 475 -720 621 -173 163 -196 177 -250 157z"/>
<path d="M4533 5373 c-137 -384 -466 -1051 -758 -1538 -174 -289 -259 -422
-434 -675 -431 -627 -910 -1203 -1400 -1685 -141 -138 -157 -162 -135 -194 8
-11 26 -21 39 -21 13 0 131 72 282 172 312 208 334 222 583 373 107 65 211
128 230 140 39 25 80 48 155 90 28 16 124 70 215 120 353 198 753 400 1218
616 46 22 85 39 87 39 2 0 32 13 67 29 662 299 1511 613 2238 826 107 31 487
137 506 141 11 2 65 15 120 29 120 32 97 26 284 69 85 20 171 40 190 46 19 5
49 11 65 14 17 3 39 8 50 10 11 3 85 18 165 35 172 35 174 36 194 66 22 33 20
77 -4 108 -25 31 -24 31 -180 57 -69 12 -183 32 -255 45 -71 14 -141 27 -155
29 -23 4 -207 43 -240 51 -8 2 -37 9 -65 15 -27 6 -61 14 -75 16 -119 22 -544
130 -820 209 -69 19 -150 42 -180 51 -63 17 -374 116 -565 179 -445 148 -1041
382 -1339 526 -70 34 -75 35 -83 12z"/>
</g>
</svg>
